{
  "accessors": [
    {
      "bufferView": 2,
      "componentType": 5126,
      "count": 2744,
      "max": [
        0.99831897020339966,
        1.0001696348190308,
        1.14019775390625
      ],
      "min": [
        -0.99860697984695435,
        -1.0000247955322266,
        -0.99919992685317993
      ],
      "type": "VEC3"
    },
    {
      "bufferView": 2,
      "byteOffset": 32928,
      "componentType": 5126,
      "count": 2744,
      "max": [
        0.99963754415512085,
        0.99884343147277832,
        0.99982202053070068
      ],
      "min": [
        -0.99926340579986572,
        -0.9996110200881958,
        -0.99999946355819702
      ],
      "type": "VEC3"
    },
    {
      "bufferView": 3,
      "componentType": 5126,
      "count": 2744,
      "max": [
        0.75391179323196411,
        0.9999537467956543,
        0.99692445993423462,
        1
      ],
      "min": [
        -0.99999433755874634,
        -0.99993801116943359,
        -0.99910181760787964,
        -1
      ],
      "type": "VEC4"
    },
    {
      "bufferView": 3,
      "byteOffset": 43904,
      "componentType": 5126,
      "count": 2744,
      "max": [
        1,
        1,
        1,
        1
      ],
      "min": [
        0,
        0,
        0,
        1
      ],
      "type": "VEC4"
    },
    {
      "bufferView": 1,
      "componentType": 5126,
      "count": 2744,
      "max": [
        0.72598022222518921,
        0.99804693460464478
      ],
      "min": [
        0.0019531177822500467,
        0.0019531178986653686
      ],
      "type": "VEC2"
    },
    {
      "bufferView": 1,
      "byteOffset": 21952,
      "componentType": 5126,
      "count": 2744,
      "max": [
        0.72598022222518921,
        0.99804693460464478
      ],
      "min": [
        0.0019531177822500467,
        0.0019531178986653686
      ],
      "type": "VEC2"
    },
    {
      "bufferView": 0,
      "componentType": 5125,
      "count": 13914,
      "max": [
        2743
      ],
      "min": [
        0
      ],
      "type": "SCALAR"
    }
  ],
  "asset": {
    "extras": {
      "author": "artefactory.phg (https://sketchfab.com/artefactory.phg)",
      "license": "CC-BY-4.0 (http://creativecommons.org/licenses/by/4.0/)",
      "source": "https://sketchfab.com/models/9e6eee9ca19146d2b85c4b8fbbfac3e1",
      "title": "Test4"
    },
    "generator": "Sketchfab-3.51.0",
    "version": "2.0"
  },
  "bufferViews": [
    {
      "buffer": 0,
      "byteLength": 55656,
      "byteOffset": 0,
      "name": "floatBufferViews",
      "target": 34963
    },
    {
      "buffer": 0,
      "byteLength": 43904,
      "byteOffset": 55656,
      "byteStride": 8,
      "name": "floatBufferViews",
      "target": 34962
    },
    {
      "buffer": 0,
      "byteLength": 65856,
      "byteOffset": 99560,
      "byteStride": 12,
      "name": "floatBufferViews",
      "target": 34962
    },
    {
      "buffer": 0,
      "byteLength": 87808,
      "byteOffset": 165416,
      "byteStride": 16,
      "name": "floatBufferViews",
      "target": 34962
    }
  ],
  "buffers": [
    {
      "byteLength": 253224,
      "uri": "scene.bin"
    }
  ],
  "images": [
    {
      "uri": "textures/PM3D_Sphere3D_2_baseColor.jpeg"
    },
    {
      "uri": "textures/PM3D_Sphere3D_2_normal.png"
    }
  ],
  "materials": [
    {
      "doubleSided": true,
      "emissiveFactor": [
        0,
        0,
        0
      ],
      "name": "PM3D_Sphere3D_2",
      "normalTexture": {
        "index": 1,
        "scale": 1,
        "texCoord": 0
      },
      "pbrMetallicRoughness": {
        "baseColorFactor": [
          1,
          1,
          1,
          1
        ],
        "baseColorTexture": {
          "index": 0,
          "texCoord": 0
        },
        "metallicFactor": 0,
        "roughnessFactor": 1
      }
    }
  ],
  "meshes": [
    {
      "name": "PM3D_Sphere3D_2_PM3D_Sphere3D_2_0",
      "primitives": [
        {
          "attributes": {
            "COLOR_0": 3,
            "NORMAL": 1,
            "POSITION": 0,
            "TANGENT": 2,
            "TEXCOORD_0": 4,
            "TEXCOORD_1": 5
          },
          "indices": 6,
          "material": 0,
          "mode": 4
        }
      ]
    }
  ],
  "nodes": [
    {
      "children": [
        1
      ],
      "name": "RootNode (gltf orientation matrix)",
      "rotation": [
        -0.70710678118654746,
        -0,
        -0,
        0.70710678118654757
      ]
    },
    {
      "children": [
        2
      ],
      "name": "RootNode (model correction matrix)"
    },
    {
      "children": [
        3
      ],
      "matrix": [
        1,
        0,
        0,
        0,
        0,
        0,
        1,
        0,
        0,
        -1,
        0,
        0,
        0,
        0,
        0,
        1
      ],
      "name": "acc1ad4471cd4e7ab831f9711a1c5104.fbx"
    },
    {
      "children": [
        4
      ],
      "name": "RootNode"
    },
    {
      "children": [
        5
      ],
      "name": "PM3D_Sphere3D_2"
    },
    {
      "mesh": 0,
      "name": "PM3D_Sphere3D_2_PM3D_Sphere3D_2_0"
    }
  ],
  "samplers": [
    {
      "magFilter": 9729,
      "minFilter": 9987,
      "wrapS": 10497,
      "wrapT": 10497
    }
  ],
  "scene": 0,
  "scenes": [
    {
      "name": "OSG_Scene",
      "nodes": [
        0
      ]
    }
  ],
  "textures": [
    {
      "sampler": 0,
      "source": 0
    },
    {
      "sampler": 0,
      "source": 1
    }
  ]
}

