{
  "accessors": [
    {
      "bufferView": 2,
      "componentType": 5126,
      "count": 16570,
      "max": [
        3.1661348342895508,
        0.88887065649032593,
        0.99999707937240601
      ],
      "min": [
        -0.57912647724151611,
        -1.0768986940383911,
        -0.99965506792068481
      ],
      "type": "VEC3"
    },
    {
      "bufferView": 2,
      "byteOffset": 198840,
      "componentType": 5126,
      "count": 16570,
      "max": [
        0.99874204397201538,
        0.99998432397842407,
        0.99991685152053833
      ],
      "min": [
        -0.99830079078674316,
        -0.99992561340332031,
        -0.9999663233757019
      ],
      "type": "VEC3"
    },
    {
      "bufferView": 3,
      "componentType": 5126,
      "count": 16570,
      "max": [
        0.99961107969284058,
        0.99963557720184326,
        0.99993127584457397,
        1
      ],
      "min": [
        -0.99996793270111084,
        -0.99998456239700317,
        -0.99992138147354126,
        -1
      ],
      "type": "VEC4"
    },
    {
      "bufferView": 3,
      "byteOffset": 265120,
      "componentType": 5126,
      "count": 16570,
      "max": [
        1,
        1,
        1,
        1
      ],
      "min": [
        0.34509804844856262,
        0.27450981736183167,
        0.031372550874948502,
        1
      ],
      "type": "VEC4"
    },
    {
      "bufferView": 1,
      "componentType": 5126,
      "count": 16570,
      "max": [
        0.99701774120330811,
        0.998046875
      ],
      "min": [
        0.0019531252328306437,
        0.0019531160360202193
      ],
      "type": "VEC2"
    },
    {
      "bufferView": 0,
      "componentType": 5125,
      "count": 83220,
      "max": [
        16569
      ],
      "min": [
        0
      ],
      "type": "SCALAR"
    }
  ],
  "asset": {
    "extras": {
      "author": "artefactory.phg (https://sketchfab.com/artefactory.phg)",
      "license": "CC-BY-4.0 (http://creativecommons.org/licenses/by/4.0/)",
      "source": "https://sketchfab.com/models/1cccbe6bec0f4479abd3a7c6f7c6f6e1",
      "title": "Export"
    },
    "generator": "Sketchfab-3.53.2",
    "version": "2.0"
  },
  "bufferViews": [
    {
      "buffer": 0,
      "byteLength": 332880,
      "byteOffset": 0,
      "name": "floatBufferViews",
      "target": 34963
    },
    {
      "buffer": 0,
      "byteLength": 132560,
      "byteOffset": 332880,
      "byteStride": 8,
      "name": "floatBufferViews",
      "target": 34962
    },
    {
      "buffer": 0,
      "byteLength": 397680,
      "byteOffset": 465440,
      "byteStride": 12,
      "name": "floatBufferViews",
      "target": 34962
    },
    {
      "buffer": 0,
      "byteLength": 530240,
      "byteOffset": 863120,
      "byteStride": 16,
      "name": "floatBufferViews",
      "target": 34962
    }
  ],
  "buffers": [
    {
      "byteLength": 1393360,
      "uri": "scene.bin"
    }
  ],
  "images": [
    {
      "uri": "textures/PM3D_Sphere3D_1_baseColor.jpeg"
    }
  ],
  "materials": [
    {
      "doubleSided": true,
      "emissiveFactor": [
        0,
        0,
        0
      ],
      "name": "PM3D_Sphere3D_1",
      "pbrMetallicRoughness": {
        "baseColorFactor": [
          1,
          1,
          1,
          1
        ],
        "baseColorTexture": {
          "index": 0,
          "texCoord": 0
        },
        "metallicFactor": 0,
        "roughnessFactor": 1
      }
    }
  ],
  "meshes": [
    {
      "name": "PM3D_Sphere3D_1_PM3D_Sphere3D_1_0",
      "primitives": [
        {
          "attributes": {
            "COLOR_0": 3,
            "NORMAL": 1,
            "POSITION": 0,
            "TANGENT": 2,
            "TEXCOORD_0": 4
          },
          "indices": 5,
          "material": 0,
          "mode": 4
        }
      ]
    }
  ],
  "nodes": [
    {
      "children": [
        1
      ],
      "name": "RootNode (gltf orientation matrix)",
      "rotation": [
        -0.70710678118654746,
        -0,
        -0,
        0.70710678118654757
      ]
    },
    {
      "children": [
        2
      ],
      "name": "RootNode (model correction matrix)"
    },
    {
      "children": [
        3
      ],
      "matrix": [
        1,
        0,
        0,
        0,
        0,
        0,
        1,
        0,
        0,
        -1,
        0,
        0,
        0,
        0,
        0,
        1
      ],
      "name": "3d248adaf83b4fe1b46668ffbc0121aa.fbx"
    },
    {
      "children": [
        4
      ],
      "name": "RootNode"
    },
    {
      "children": [
        5
      ],
      "name": "PM3D_Sphere3D_1"
    },
    {
      "mesh": 0,
      "name": "PM3D_Sphere3D_1_PM3D_Sphere3D_1_0"
    }
  ],
  "samplers": [
    {
      "magFilter": 9729,
      "minFilter": 9987,
      "wrapS": 10497,
      "wrapT": 10497
    }
  ],
  "scene": 0,
  "scenes": [
    {
      "name": "OSG_Scene",
      "nodes": [
        0
      ]
    }
  ],
  "textures": [
    {
      "sampler": 0,
      "source": 0
    }
  ]
}

