{
  "accessors": [
    {
      "bufferView": 2,
      "componentType": 5126,
      "count": 65533,
      "max": [
        3.4831745624542236,
        4.1217894554138184,
        3.3457279205322266
      ],
      "min": [
        -2.7142677307128906,
        -4.0191869735717773,
        -3.0844063758850098
      ],
      "type": "VEC3"
    },
    {
      "bufferView": 2,
      "byteOffset": 786396,
      "componentType": 5126,
      "count": 65533,
      "max": [
        0.99996089935302734,
        0.99993765354156494,
        0.99990230798721313
      ],
      "min": [
        -0.99997401237487793,
        -0.99999070167541504,
        -0.99999302625656128
      ],
      "type": "VEC3"
    },
    {
      "bufferView": 3,
      "componentType": 5126,
      "count": 65533,
      "max": [
        0.99996471405029297,
        0.99998211860656738,
        0.99998933076858521,
        1
      ],
      "min": [
        -0.99996209144592285,
        -0.9999992847442627,
        -0.99997740983963013,
        -1
      ],
      "type": "VEC4"
    },
    {
      "bufferView": 3,
      "byteOffset": 1048528,
      "componentType": 5126,
      "count": 65533,
      "max": [
        1,
        1,
        1,
        1
      ],
      "min": [
        0,
        0,
        0,
        1
      ],
      "type": "VEC4"
    },
    {
      "bufferView": 1,
      "componentType": 5126,
      "count": 65533,
      "max": [
        0.98241132497787476,
        0.99504345655441284
      ],
      "min": [
        0.0019531280267983675,
        0.0019531197613105178
      ],
      "type": "VEC2"
    },
    {
      "bufferView": 0,
      "componentType": 5125,
      "count": 65535,
      "max": [
        65532
      ],
      "min": [
        0
      ],
      "type": "SCALAR"
    },
    {
      "bufferView": 2,
      "byteOffset": 1572792,
      "componentType": 5126,
      "count": 51579,
      "max": [
        2.9167609214782715,
        4.2562823295593262,
        2.5604748725891113
      ],
      "min": [
        -3.0336391925811768,
        -3.9315445423126221,
        -3.9025630950927734
      ],
      "type": "VEC3"
    },
    {
      "bufferView": 2,
      "byteOffset": 2191740,
      "componentType": 5126,
      "count": 51579,
      "max": [
        0.99996525049209595,
        0.99999535083770752,
        0.99999183416366577
      ],
      "min": [
        -0.99997597932815552,
        -0.99999278783798218,
        -0.99998575448989868
      ],
      "type": "VEC3"
    },
    {
      "bufferView": 3,
      "byteOffset": 2097056,
      "componentType": 5126,
      "count": 51579,
      "max": [
        0.9998440146446228,
        0.99994027614593506,
        0.99997156858444214,
        1
      ],
      "min": [
        -0.99994152784347534,
        -0.99992144107818604,
        -0.99992316961288452,
        -1
      ],
      "type": "VEC4"
    },
    {
      "bufferView": 3,
      "byteOffset": 2922320,
      "componentType": 5126,
      "count": 51579,
      "max": [
        1,
        1,
        1,
        1
      ],
      "min": [
        0,
        0,
        0,
        1
      ],
      "type": "VEC4"
    },
    {
      "bufferView": 1,
      "byteOffset": 524264,
      "componentType": 5126,
      "count": 51579,
      "max": [
        0.998046875,
        0.99504345655441284
      ],
      "min": [
        0.0022625550627708435,
        0.0019531197613105178
      ],
      "type": "VEC2"
    },
    {
      "bufferView": 0,
      "byteOffset": 262140,
      "componentType": 5125,
      "count": 51579,
      "max": [
        51578
      ],
      "min": [
        0
      ],
      "type": "SCALAR"
    }
  ],
  "asset": {
    "extras": {
      "author": "artefactory.phg (https://sketchfab.com/artefactory.phg)",
      "license": "CC-BY-4.0 (http://creativecommons.org/licenses/by/4.0/)",
      "source": "https://sketchfab.com/models/98b4ed6305ed475aa72b69d4fa92670e",
      "title": "Samourai"
    },
    "generator": "Sketchfab-3.54.7",
    "version": "2.0"
  },
  "bufferViews": [
    {
      "buffer": 0,
      "byteLength": 468456,
      "byteOffset": 0,
      "name": "floatBufferViews",
      "target": 34963
    },
    {
      "buffer": 0,
      "byteLength": 936896,
      "byteOffset": 468456,
      "byteStride": 8,
      "name": "floatBufferViews",
      "target": 34962
    },
    {
      "buffer": 0,
      "byteLength": 2810688,
      "byteOffset": 1405352,
      "byteStride": 12,
      "name": "floatBufferViews",
      "target": 34962
    },
    {
      "buffer": 0,
      "byteLength": 3747584,
      "byteOffset": 4216040,
      "byteStride": 16,
      "name": "floatBufferViews",
      "target": 34962
    }
  ],
  "buffers": [
    {
      "byteLength": 7963624,
      "uri": "scene.bin"
    }
  ],
  "images": [
    {
      "uri": "textures/Merged_wristBands_baseColor.jpeg"
    }
  ],
  "materials": [
    {
      "doubleSided": true,
      "emissiveFactor": [
        0,
        0,
        0
      ],
      "name": "Merged_wristBands",
      "pbrMetallicRoughness": {
        "baseColorFactor": [
          1,
          1,
          1,
          1
        ],
        "baseColorTexture": {
          "index": 0,
          "texCoord": 0
        },
        "metallicFactor": 0,
        "roughnessFactor": 1
      }
    }
  ],
  "meshes": [
    {
      "name": "Merged_wristBands_Merged_wristBands_0",
      "primitives": [
        {
          "attributes": {
            "COLOR_0": 3,
            "NORMAL": 1,
            "POSITION": 0,
            "TANGENT": 2,
            "TEXCOORD_0": 4
          },
          "indices": 5,
          "material": 0,
          "mode": 4
        }
      ]
    },
    {
      "name": "Merged_wristBands_Merged_wristBands_0",
      "primitives": [
        {
          "attributes": {
            "COLOR_0": 9,
            "NORMAL": 7,
            "POSITION": 6,
            "TANGENT": 8,
            "TEXCOORD_0": 10
          },
          "indices": 11,
          "material": 0,
          "mode": 4
        }
      ]
    }
  ],
  "nodes": [
    {
      "children": [
        1
      ],
      "name": "RootNode (gltf orientation matrix)",
      "rotation": [
        -0.70710678118654746,
        -0,
        -0,
        0.70710678118654757
      ]
    },
    {
      "children": [
        2
      ],
      "name": "RootNode (model correction matrix)"
    },
    {
      "children": [
        3
      ],
      "matrix": [
        1,
        0,
        0,
        0,
        0,
        0,
        1,
        0,
        0,
        -1,
        0,
        0,
        0,
        0,
        0,
        1
      ],
      "name": "1ed9ddeeedb94b3b8dfac5ed0cee3592.fbx"
    },
    {
      "children": [
        4
      ],
      "name": "RootNode"
    },
    {
      "children": [
        5,
        6
      ],
      "name": "Merged_wristBands"
    },
    {
      "mesh": 0,
      "name": "Merged_wristBands_Merged_wristBands_0"
    },
    {
      "mesh": 1,
      "name": "Merged_wristBands_Merged_wristBands_0"
    }
  ],
  "samplers": [
    {
      "magFilter": 9729,
      "minFilter": 9987,
      "wrapS": 10497,
      "wrapT": 10497
    }
  ],
  "scene": 0,
  "scenes": [
    {
      "name": "OSG_Scene",
      "nodes": [
        0
      ]
    }
  ],
  "textures": [
    {
      "sampler": 0,
      "source": 0
    }
  ]
}

